<svg width="14" height="14" viewBox="0 0 14 14" fill="none" xmlns="http://www.w3.org/2000/svg">
<g clip-path="url(#clip0_2_48)">
<path d="M7 12.8333C3.77825 12.8333 1.16666 10.2217 1.16666 7C1.16666 3.77825 3.77825 1.16667 7 1.16667C10.2217 1.16667 12.8333 3.77825 12.8333 7C12.8333 10.2217 10.2217 12.8333 7 12.8333ZM7 11.6667C8.23768 11.6667 9.42466 11.175 10.2998 10.2998C11.175 9.42466 11.6667 8.23768 11.6667 7C11.6667 5.76232 11.175 4.57534 10.2998 3.70017C9.42466 2.825 8.23768 2.33333 7 2.33333C5.76232 2.33333 4.57534 2.825 3.70017 3.70017C2.825 4.57534 2.33333 5.76232 2.33333 7C2.33333 8.23768 2.825 9.42466 3.70017 10.2998C4.57534 11.175 5.76232 11.6667 7 11.6667ZM7.58333 7H9.91667V8.16667H6.41667V4.08333H7.58333V7Z" fill="#D52A2A"/>
</g>
<defs>
<clipPath id="clip0_2_48">
<rect width="14" height="14" fill="white"/>
</clipPath>
</defs>
</svg>
