<svg width="306" height="238" viewBox="0 0 306 238" fill="none" xmlns="http://www.w3.org/2000/svg">
<line x1="3.56681" y1="-3.56681" x2="37.4538" y2="-3.56681" transform="matrix(0.747349 -0.667218 0.620392 0.786653 77.9578 140.069)" stroke="#4CC082" stroke-width="7.13362" stroke-linecap="round"/>
<line x1="2.09812" y1="-2.09812" x2="80.493" y2="-2.09812" transform="matrix(0.747349 -0.667218 0.620392 0.786653 140.19 235.28)" stroke="#4CC082" stroke-width="4.19625" stroke-linecap="round"/>
<line x1="2.30794" y1="-2.30794" x2="38.7127" y2="-2.30794" transform="matrix(0.747349 -0.667218 0.620392 0.786653 131.695 104.965)" stroke="#6F8EFF" stroke-width="4.61587" stroke-linecap="round"/>
<line x1="3.14719" y1="-3.14719" x2="19.2841" y2="-3.14719" transform="matrix(0.747349 -0.667218 0.620392 0.786653 37.2599 143.641)" stroke="#6F8EFF" stroke-width="6.29437" stroke-linecap="round"/>
<line x1="1.99322" y1="-1.99322" x2="43.2576" y2="-1.99322" transform="matrix(0.747349 -0.667218 0.620392 0.786653 19.7582 120.039)" stroke="#6F8EFF" stroke-width="3.98644" stroke-linecap="round"/>
<line x1="1.04906" y1="-1.04906" x2="22.1811" y2="-1.04906" transform="matrix(0.747349 -0.667218 0.620392 0.786653 272.883 235.324)" stroke="#8D55E9" stroke-width="2.09812" stroke-linecap="round"/>
<line x1="3.357" y1="-3.357" x2="18.2437" y2="-3.357" transform="matrix(0.747349 -0.667218 0.620392 0.786653 84.8022 40.3442)" stroke="#8D55E9" stroke-width="6.714" stroke-linecap="round"/>
<line x1="1.25887" y1="-1.25887" x2="62.5826" y2="-1.25887" transform="matrix(0.747349 -0.667218 0.620392 0.786653 147.796 150.393)" stroke="#EC6C5A" stroke-width="2.51775" stroke-linecap="round"/>
<line x1="1.25887" y1="-1.25887" x2="76.1732" y2="-1.25887" transform="matrix(0.747349 -0.667218 0.620392 0.786653 6.44021 187.485)" stroke="#EC6C5A" stroke-width="2.51775" stroke-linecap="round"/>
<line x1="1.25887" y1="-1.25887" x2="43.045" y2="-1.25887" transform="matrix(0.747349 -0.667218 0.620392 0.786653 78.7481 238.532)" stroke="#8D55E9" stroke-width="2.51775" stroke-linecap="round"/>
<line x1="2.72756" y1="-2.72756" x2="21.7189" y2="-2.72756" transform="matrix(0.747349 -0.667218 0.620392 0.786653 22.0476 75.8293)" stroke="#E350F0" stroke-width="5.45512" stroke-linecap="round"/>
<line x1="2.72756" y1="-2.72756" x2="28.8698" y2="-2.72756" transform="matrix(0.747349 -0.667218 0.620392 0.786653 209.877 89.5658)" stroke="#EC6C5A" stroke-width="5.45512" stroke-linecap="round"/>
<line x1="2.72756" y1="-2.72756" x2="37.5147" y2="-2.72756" transform="matrix(0.747349 -0.667218 0.620392 0.786653 11.7744 229.095)" stroke="#4CC082" stroke-width="5.45512" stroke-linecap="round"/>
<line x1="0.209812" y1="-0.209812" x2="90.0843" y2="-0.209812" transform="matrix(0.747349 -0.667218 0.620392 0.786653 178.818 227.374)" stroke="#FF5761" stroke-width="0.419625" stroke-linecap="round"/>
<line x1="0.104906" y1="-0.104906" x2="90.8179" y2="-0.104906" transform="matrix(0.747349 -0.667218 0.620392 0.786653 4.27223 107.775)" stroke="#4CC082" stroke-width="0.209812" stroke-linecap="round"/>
<line x1="0.104906" y1="-0.104906" x2="77.7611" y2="-0.104906" transform="matrix(0.747349 -0.667218 0.620392 0.786653 69.8577 108.319)" stroke="#4CC082" stroke-width="0.209812" stroke-linecap="round"/>
<line x1="0.104906" y1="-0.104906" x2="64.476" y2="-0.104906" transform="matrix(0.747349 -0.667218 0.620392 0.786653 0.0885733 149.589)" stroke="white" stroke-width="0.209812" stroke-linecap="round"/>
<line x1="0.104906" y1="-0.104906" x2="42.2123" y2="-0.104906" transform="matrix(0.747349 -0.667218 0.620392 0.786653 19.4793 54.5413)" stroke="white" stroke-width="0.209812" stroke-linecap="round"/>
<line x1="0.524531" y1="-0.524531" x2="65.2599" y2="-0.524531" transform="matrix(0.747349 -0.667218 0.620392 0.786653 256.949 78.3969)" stroke="#F4DC5A" stroke-width="1.04906" stroke-linecap="round"/>
<line x1="4.19625" y1="-4.19625" x2="25.1007" y2="-4.19625" transform="matrix(0.747349 -0.667218 0.620392 0.786653 112.334 148.222)" stroke="#E350F0" stroke-width="8.3925" stroke-linecap="round"/>
<line x1="2.72756" y1="-2.72756" x2="45.0428" y2="-2.72756" transform="matrix(0.747349 -0.667218 0.620392 0.786653 90.038 208.813)" stroke="#E350F0" stroke-width="5.45512" stroke-linecap="round"/>
<line x1="0.629437" y1="-0.629437" x2="89.1927" y2="-0.629437" transform="matrix(0.747349 -0.667218 0.620392 0.786653 205.802 163.265)" stroke="#EC6C5A" stroke-width="1.25887" stroke-linecap="round"/>
<line x1="5.35022" y1="-5.35022" x2="27.138" y2="-5.35022" transform="matrix(0.747349 -0.667218 0.620392 0.786653 265.05 224.132)" stroke="#F4DC5A" stroke-width="10.7004" stroke-linecap="round"/>
<line x1="5.76984" y1="-5.76984" x2="22.9036" y2="-5.76984" transform="matrix(0.747349 -0.667218 0.620392 0.786653 261.493 162.73)" stroke="#EC6C5A" stroke-width="11.5397" stroke-linecap="round"/>
<line x1="5.76984" y1="-5.76984" x2="14.4297" y2="-5.76984" transform="matrix(0.747349 -0.667218 0.620392 0.786653 70.6481 205.002)" stroke="#4CC082" stroke-width="11.5397" stroke-linecap="round"/>
<line x1="3.67172" y1="-3.67172" x2="37.3526" y2="-3.67172" transform="matrix(0.747349 -0.667218 0.620392 0.786653 120.631 50.5256)" stroke="#F4DC5A" stroke-width="7.34344" stroke-linecap="round"/>
<line x1="4.51097" y1="-4.51097" x2="27.3908" y2="-4.51097" transform="matrix(0.747349 -0.667218 0.620392 0.786653 149.278 177.076)" stroke="#FF5761" stroke-width="9.02194" stroke-linecap="round"/>
<line x1="5.24531" y1="-5.24531" x2="18.9991" y2="-5.24531" transform="matrix(0.747349 -0.667218 0.620392 0.786653 72.2285 94.6127)" stroke="#6E8EFF" stroke-width="10.4906" stroke-linecap="round"/>
<line x1="3.357" y1="-3.357" x2="28.6836" y2="-3.357" transform="matrix(0.747349 -0.667217 0.620392 0.786653 148.863 71.8389)" stroke="#6E8EFF" stroke-width="6.714" stroke-linecap="round"/>
<line x1="3.77662" y1="-3.77662" x2="25.6898" y2="-3.77662" transform="matrix(0.747349 -0.667218 0.620392 0.786653 206.966 228.422)" stroke="#8D55E9" stroke-width="7.55325" stroke-linecap="round"/>
<line x1="3.67172" y1="-3.67172" x2="41.4937" y2="-3.67172" transform="matrix(0.747349 -0.667218 0.620392 0.786653 198.076 139.892)" stroke="#8D55E9" stroke-width="7.34344" stroke-linecap="round"/>
<line x1="2.20303" y1="-2.20303" x2="44.0332" y2="-2.20303" transform="matrix(0.747349 -0.667218 0.620392 0.786653 251.023 60.7295)" stroke="#6E8EFF" stroke-width="4.40606" stroke-linecap="round"/>
<line x1="0.209812" y1="-0.209812" x2="93.7209" y2="-0.209812" transform="matrix(0.747349 -0.667218 0.620392 0.786653 75.7847 62.9137)" stroke="#F4DC5A" stroke-width="0.419625" stroke-linecap="round"/>
<line x1="0.209812" y1="-0.209812" x2="97.2359" y2="-0.209812" transform="matrix(0.747349 -0.667218 0.620392 0.786653 230.616 156.979)" stroke="#8D55E9" stroke-width="0.419625" stroke-linecap="round"/>
<line x1="0.419625" y1="-0.419625" x2="43.293" y2="-0.419625" transform="matrix(0.747349 -0.667218 0.620392 0.786653 45.1961 41.4149)" stroke="#E350F0" stroke-width="0.83925" stroke-linecap="round"/>
<line x1="0.419625" y1="-0.419625" x2="104.664" y2="-0.419625" transform="matrix(0.747349 -0.667218 0.620392 0.786653 22.0476 204.254)" stroke="white" stroke-width="0.83925" stroke-linecap="round"/>
<line x1="0.629437" y1="-0.629437" x2="61.3172" y2="-0.629437" transform="matrix(0.747349 -0.667218 0.620392 0.786653 250.232 102.322)" stroke="#4CC082" stroke-width="1.25887" stroke-linecap="round"/>
<line x1="0.209812" y1="-0.209812" x2="57.2557" y2="-0.209812" transform="matrix(0.747349 -0.667218 0.620392 0.786653 224.154 233.44)" stroke="white" stroke-width="0.419625" stroke-linecap="round"/>
<line x1="0.524531" y1="-0.524531" x2="94.936" y2="-0.524531" transform="matrix(0.747349 -0.667218 0.620392 0.786653 188.878 128.465)" stroke="white" stroke-width="1.04906" stroke-linecap="round"/>
<line x1="0.314719" y1="-0.314719" x2="52.462" y2="-0.314719" transform="matrix(0.747349 -0.667218 0.620392 0.786653 135.483 210.298)" stroke="white" stroke-width="0.629437" stroke-linecap="round"/>
<line x1="0.104906" y1="-0.104906" x2="72.6031" y2="-0.104906" transform="matrix(0.747349 -0.667218 0.620392 0.786653 203.998 71.7427)" stroke="white" stroke-width="0.209812" stroke-linecap="round"/>
<line x1="0.209812" y1="-0.209812" x2="95.1085" y2="-0.209812" transform="matrix(0.747349 -0.667218 0.620392 0.786653 128.139 148.341)" stroke="#9E8F4D" stroke-width="0.419625" stroke-linecap="round"/>
<line x1="1.36378" y1="-1.36378" x2="73.6396" y2="-1.36378" transform="matrix(0.747349 -0.667218 0.620392 0.786653 179.038 75.7709)" stroke="#F4DC5A" stroke-width="2.72756" stroke-linecap="round"/>
<line x1="0.83925" y1="-0.83925" x2="67.8326" y2="-0.83925" transform="matrix(0.747349 -0.667218 0.620392 0.786653 247.291 191.266)" stroke="#FF5761" stroke-width="1.6785" stroke-linecap="round"/>
<line x1="0.83925" y1="-0.83925" x2="67.8326" y2="-0.83925" transform="matrix(0.747349 -0.667218 0.620392 0.786653 110.358 83.6866)" stroke="#FF5761" stroke-width="1.6785" stroke-linecap="round"/>
<line x1="0.83925" y1="-0.83925" x2="55.515" y2="-0.83925" transform="matrix(0.747349 -0.667218 0.620392 0.786653 236.008 214.201)" stroke="#4CC082" stroke-width="1.6785" stroke-linecap="round"/>
<line x1="2.51775" y1="-2.51775" x2="26.8758" y2="-2.51775" transform="matrix(0.747349 -0.667218 0.620392 0.786653 6.81643 46.892)" stroke="#F4DC5A" stroke-width="5.0355" stroke-linecap="round"/>
</svg>
