<svg width="23" height="24" viewBox="0 0 23 24" fill="none" xmlns="http://www.w3.org/2000/svg">
<path d="M8.58449 20.7733V17.7156C8.58449 16.9351 9.18348 16.3023 9.92238 16.3023H12.6234C12.9782 16.3023 13.3185 16.4512 13.5694 16.7163C13.8204 16.9813 13.9613 17.3408 13.9613 17.7156V20.7733C13.9591 21.0978 14.0795 21.4099 14.296 21.6402C14.5124 21.8705 14.8069 22 15.1141 22H16.9568C17.8175 22.0023 18.6436 21.6428 19.253 21.0008C19.8624 20.3588 20.2048 19.487 20.2048 18.5778V9.86686C20.2048 9.13246 19.8966 8.43584 19.3634 7.96467L13.0946 2.67587C12.0042 1.74856 10.4418 1.7785 9.38386 2.74698L3.25815 7.96467C2.69968 8.42195 2.36589 9.12064 2.3494 9.86686V18.5689C2.3494 20.4639 3.80356 22 5.59737 22H7.39805C8.03609 22 8.55462 21.4562 8.55925 20.7822L8.58449 20.7733Z" fill="white"/>
</svg>
