<svg width="12" height="12" viewBox="0 0 12 12" fill="none" xmlns="http://www.w3.org/2000/svg">
<path d="M9.40324 2.8739H2.8739V9.40324H9.40324V2.8739Z" fill="white"/>
<path d="M11.2426 4.65083C11.0405 4.4401 10.8316 4.22226 10.7526 4.03135C10.6801 3.85599 10.6757 3.56553 10.6714 3.2846C10.6635 2.76181 10.6546 2.16928 10.2427 1.75734C9.83072 1.34541 9.23819 1.33646 8.7154 1.32856C8.43447 1.32432 8.14401 1.31993 7.96865 1.24737C7.7778 1.16842 7.5599 0.959474 7.34917 0.757377C6.97904 0.402361 6.55941 0 6 0C5.44059 0 5.02101 0.402361 4.65083 0.757377C4.4401 0.959473 4.22226 1.16842 4.03135 1.24737C3.85599 1.31993 3.56553 1.32432 3.2846 1.32856C2.76181 1.33646 2.16928 1.34541 1.75734 1.75734C1.34541 2.16928 1.33646 2.76181 1.32856 3.2846C1.32432 3.56553 1.31993 3.85599 1.24737 4.03135C1.16842 4.2222 0.959474 4.4401 0.757377 4.65083C0.402361 5.02096 0 5.44059 0 6C0 6.55941 0.402361 6.97899 0.757377 7.34917C0.959473 7.5599 1.16842 7.77774 1.24737 7.96865C1.31993 8.14401 1.32432 8.43447 1.32856 8.7154C1.33646 9.23819 1.34541 9.83072 1.75734 10.2427C2.16928 10.6546 2.76181 10.6635 3.2846 10.6714C3.56553 10.6757 3.85599 10.6801 4.03135 10.7526C4.2222 10.8316 4.4401 11.0405 4.65083 11.2426C5.02096 11.5976 5.44059 12 6 12C6.55941 12 6.97899 11.5976 7.34917 11.2426C7.5599 11.0405 7.77774 10.8316 7.96865 10.7526C8.14401 10.6801 8.43447 10.6757 8.7154 10.6714C9.23819 10.6635 9.83072 10.6546 10.2427 10.2427C10.6546 9.83072 10.6635 9.23819 10.6714 8.7154C10.6757 8.43447 10.6801 8.14401 10.7526 7.96865C10.8316 7.7778 11.0405 7.5599 11.2426 7.34917C11.5976 6.97904 12 6.55941 12 6C12 5.44059 11.5976 5.02101 11.2426 4.65083ZM8.65304 5.02431L5.51017 8.02431C5.43045 8.1004 5.32447 8.14286 5.21427 8.14286C5.10406 8.14286 4.99809 8.1004 4.91837 8.02431L3.34696 6.52431C3.30622 6.48546 3.27354 6.43896 3.25078 6.38747C3.22801 6.33599 3.21562 6.28052 3.21429 6.22424C3.21297 6.16797 3.22275 6.11198 3.24307 6.05948C3.26339 6.00698 3.29385 5.959 3.33272 5.91828C3.37159 5.87756 3.4181 5.84489 3.46959 5.82215C3.52109 5.7994 3.57656 5.78703 3.63283 5.78573C3.68911 5.78442 3.7451 5.79422 3.79759 5.81456C3.85008 5.8349 3.89805 5.86538 3.93876 5.90426L5.21427 7.12181L8.06124 4.40426C8.10195 4.36538 8.14992 4.3349 8.20241 4.31456C8.2549 4.29422 8.31089 4.28442 8.36717 4.28573C8.42344 4.28703 8.47891 4.2994 8.53041 4.32215C8.5819 4.34489 8.62841 4.37756 8.66728 4.41828C8.70615 4.459 8.73661 4.50698 8.75693 4.55948C8.77725 4.61198 8.78703 4.66797 8.7857 4.72424C8.78438 4.78052 8.77199 4.83599 8.74922 4.88747C8.72646 4.93896 8.69378 4.98546 8.65304 5.02431Z" fill="#FFA45A"/>
</svg>
