<svg width="24" height="24" viewBox="0 0 24 24" fill="none" xmlns="http://www.w3.org/2000/svg">
<g clip-path="url(#clip0_2_121)">
<path d="M17.0459 10.6562H15.1372C15.0645 11.9761 14.8179 13.1636 14.4434 14.0942C15.7964 13.4478 16.7881 12.1807 17.0459 10.6562ZM17.0459 9.09375C16.7876 7.56934 15.7964 6.30225 14.4434 5.65576C14.8184 6.58643 15.0645 7.77393 15.1372 9.09375H17.0459ZM12.4375 5.25146C12.062 5.61523 11.4233 6.93213 11.2935 9.09375H13.582C13.4517 6.93262 12.813 5.61523 12.4375 5.25146ZM10.4316 5.65576C9.07861 6.30225 8.08691 7.56934 7.8291 9.09375H9.73779C9.81055 7.77393 10.0566 6.58643 10.4316 5.65576ZM10.4316 14.0942C10.0566 13.1636 9.81055 11.9761 9.73779 10.6562H7.8291C8.08691 12.1807 9.07861 13.4478 10.4316 14.0942ZM13.5815 10.6562H11.293C11.4229 12.8174 12.0615 14.1348 12.437 14.4985C12.813 14.1348 13.4517 12.8174 13.5815 10.6562ZM23.375 18V1.75C23.375 0.96875 22.9062 0.5 22.125 0.5H6.1875C3.53125 0.5 1.5 2.53125 1.5 5.1875V20.8125C1.5 23.4688 3.53125 25.5 6.1875 25.5H22.125C22.75 25.5 23.375 25.0312 23.375 24.25V23.4688C23.375 23.1562 23.2188 22.8438 22.9062 22.5312C22.75 21.75 22.75 19.5625 22.9062 18.9375C23.2188 18.7812 23.375 18.4688 23.375 18ZM12.4375 3.625C15.8892 3.625 18.6875 6.42334 18.6875 9.875C18.6875 13.3267 15.8892 16.125 12.4375 16.125C8.98584 16.125 6.1875 13.3267 6.1875 9.875C6.1875 6.42334 8.98584 3.625 12.4375 3.625ZM20.25 22.375H6.1875C5.25 22.375 4.625 21.75 4.625 20.8125C4.625 19.875 5.40625 19.25 6.1875 19.25H20.25V22.375Z" fill="#7B7B7D"/>
</g>
<defs>
<clipPath id="clip0_2_121">
<rect width="24" height="24" fill="white"/>
</clipPath>
</defs>
</svg>
