<svg width="20" height="20" viewBox="0 0 20 20" fill="none" xmlns="http://www.w3.org/2000/svg">
<path d="M9.99992 10.8333C10.4602 10.8333 10.8333 10.4602 10.8333 9.99999C10.8333 9.53975 10.4602 9.16666 9.99992 9.16666C9.53968 9.16666 9.16659 9.53975 9.16659 9.99999C9.16659 10.4602 9.53968 10.8333 9.99992 10.8333Z" stroke="#1A1A1A" stroke-width="1.5" stroke-linecap="round" stroke-linejoin="round"/>
<path d="M15.8333 10.8333C16.2935 10.8333 16.6666 10.4602 16.6666 9.99999C16.6666 9.53975 16.2935 9.16666 15.8333 9.16666C15.373 9.16666 14.9999 9.53975 14.9999 9.99999C14.9999 10.4602 15.373 10.8333 15.8333 10.8333Z" stroke="#1A1A1A" stroke-width="1.5" stroke-linecap="round" stroke-linejoin="round"/>
<path d="M4.16659 10.8333C4.62682 10.8333 4.99992 10.4602 4.99992 9.99999C4.99992 9.53975 4.62682 9.16666 4.16659 9.16666C3.70635 9.16666 3.33325 9.53975 3.33325 9.99999C3.33325 10.4602 3.70635 10.8333 4.16659 10.8333Z" stroke="#1A1A1A" stroke-width="1.5" stroke-linecap="round" stroke-linejoin="round"/>
</svg>
