<svg width="23" height="24" viewBox="0 0 23 24" fill="none" xmlns="http://www.w3.org/2000/svg">
<path d="M8.58452 20.7733V17.7156C8.58452 16.9351 9.18352 16.3023 9.92241 16.3023H12.6234C12.9783 16.3023 13.3186 16.4512 13.5695 16.7163C13.8204 16.9813 13.9613 17.3408 13.9613 17.7156V20.7733C13.9591 21.0978 14.0796 21.4099 14.296 21.6402C14.5124 21.8705 14.8069 22 15.1141 22H16.9569C17.8175 22.0023 18.6437 21.6428 19.253 21.0008C19.8624 20.3588 20.2048 19.487 20.2048 18.5778V9.86686C20.2048 9.13246 19.8967 8.43584 19.3634 7.96467L13.0947 2.67587C12.0042 1.74856 10.4418 1.7785 9.38389 2.74698L3.25818 7.96467C2.69971 8.42195 2.36592 9.12064 2.34943 9.86686V18.5689C2.34943 20.4639 3.80359 22 5.5974 22H7.39808C8.03612 22 8.55465 21.4562 8.55928 20.7822L8.58452 20.7733Z" fill="#7B7B7D"/>
</svg>
