<svg width="304" height="327" viewBox="0 0 304 327" fill="none" xmlns="http://www.w3.org/2000/svg">
<g opacity="0.2">
<path d="M50.5477 272.5L1.52588e-05 327H101.095L50.5477 272.5Z" fill="#FFBB33"/>
<path d="M50.2388 317.22C61.7806 317.22 72.2271 312.164 79.8092 304.019L77.4223 301.446C70.4579 308.954 60.8539 313.587 50.2388 313.587C39.7923 313.587 30.3286 309.076 23.3924 301.809L21.0054 304.382C28.5314 312.315 38.8375 317.22 50.2388 317.22Z" fill="#0000FF"/>
<path d="M50.2389 310.317C60.0115 310.317 68.8573 306.048 75.26 299.144L72.508 296.177C66.8073 302.324 58.9444 306.108 50.2389 306.108C41.702 306.108 33.9794 302.445 28.3068 296.51L25.5548 299.477C31.9013 306.169 40.6068 310.317 50.2389 310.317Z" fill="#0000FF"/>
<path d="M50.5477 272.5L1.52588e-05 327V218L50.5477 272.5Z" fill="#FEE94E"/>
<path d="M11.7945 272.167C11.7945 260.722 16.091 250.367 23.0554 242.858L20.6684 240.284C13.1143 248.429 8.42465 259.723 8.42465 272.167C8.42465 284.793 13.2267 296.207 21.0054 304.382L23.3924 301.809C16.2315 294.27 11.7945 283.763 11.7945 272.167Z" fill="#6699FF"/>
<path d="M25.5266 299.477L28.2786 296.51C22.3814 290.334 18.7307 281.704 18.7307 272.167C18.7307 262.781 22.2691 254.303 27.9417 248.157L25.1896 245.189C18.7869 252.093 14.8273 261.63 14.8273 272.167C14.8554 282.855 18.9273 292.544 25.5266 299.477Z" fill="#6699FF"/>
<path d="M50.5477 54.5L1.52588e-05 109H101.095L50.5477 54.5Z" fill="#6699FF"/>
<path d="M50.2388 99.2203C61.7806 99.2203 72.2271 94.1639 79.8092 86.0191L77.4223 83.4455C70.4579 90.9544 60.8539 95.5869 50.2388 95.5869C39.7923 95.5869 30.3286 91.0755 23.3924 83.8089L21.0054 86.3825C28.5314 94.3153 38.8375 99.2203 50.2388 99.2203Z" fill="#FEE94E"/>
<path d="M50.2389 92.317C60.0115 92.317 68.8573 88.0478 75.26 81.1444L72.508 78.1772C66.8073 84.3236 58.9444 88.1083 50.2389 88.1083C41.702 88.1083 33.9794 84.4447 28.3068 78.5103L25.5548 81.4775C31.9013 88.1689 40.6068 92.317 50.2389 92.317Z" fill="#FEE94E"/>
<path d="M50.5477 54.5L1.52588e-05 109V1.52588e-05L50.5477 54.5Z" fill="#0000FF"/>
<path d="M11.7945 54.1669C11.7945 42.7219 16.091 32.3669 23.0554 24.858L20.6684 22.2844C13.1143 30.4291 8.42465 41.7227 8.42465 54.1669C8.42465 66.7927 13.2267 78.2074 21.0054 86.3824L23.3924 83.8088C16.2315 76.2697 11.7945 65.7633 11.7945 54.1669Z" fill="#FFBB33"/>
<path d="M25.5266 81.4774L28.2786 78.5102C22.3814 72.3335 18.7307 63.7044 18.7307 54.1669C18.7307 44.7808 22.2691 36.303 27.9417 30.1566L25.1896 27.1894C18.7869 34.0927 14.8273 43.6302 14.8273 54.1669C14.8554 64.8549 18.9273 74.5438 25.5266 81.4774Z" fill="#FFBB33"/>
<path d="M151.643 163.5L202.191 109L101.095 109L151.643 163.5Z" fill="#FFBB33"/>
<path d="M151.952 118.78C140.41 118.78 129.964 123.836 122.382 131.981L124.769 134.554C131.733 127.046 141.337 122.413 151.952 122.413C162.399 122.413 171.862 126.924 178.799 134.191L181.185 131.618C173.659 123.685 163.353 118.78 151.952 118.78Z" fill="#0000FF"/>
<path d="M151.952 125.683C142.179 125.683 133.334 129.952 126.931 136.856L129.683 139.823C135.384 133.676 143.247 129.892 151.952 129.892C160.489 129.892 168.211 133.555 173.884 139.49L176.636 136.523C170.29 129.831 161.584 125.683 151.952 125.683Z" fill="#0000FF"/>
<path d="M151.643 163.5L202.191 109L202.191 218L151.643 163.5Z" fill="#FFBB33"/>
<path d="M190.396 163.833C190.396 175.278 186.1 185.633 179.135 193.142L181.522 195.716C189.077 187.571 193.766 176.277 193.766 163.833C193.766 151.207 188.964 139.793 181.185 131.618L178.798 134.191C185.959 141.73 190.396 152.237 190.396 163.833Z" fill="#0000FF"/>
<path d="M176.664 136.523L173.912 139.49C179.809 145.666 183.46 154.296 183.46 163.833C183.46 173.219 179.922 181.697 174.249 187.843L177.001 190.811C183.404 183.907 187.364 174.37 187.364 163.833C187.335 153.145 183.264 143.456 176.664 136.523Z" fill="#0000FF"/>
<path d="M252.739 54.5L202.191 109L303.286 109L252.739 54.5Z" fill="#FEE94E"/>
<path d="M252.43 99.2203C263.971 99.2203 274.418 94.1639 282 86.0192L279.613 83.4455C272.649 90.9544 263.045 95.5869 252.43 95.5869C241.983 95.5869 232.519 91.0755 225.583 83.8089L223.196 86.3825C230.722 94.3153 241.028 99.2203 252.43 99.2203Z" fill="#FFBB33"/>
<path d="M252.43 92.317C262.202 92.317 271.048 88.0478 277.451 81.1445L274.699 78.1772C268.998 84.3236 261.135 88.1084 252.43 88.1084C243.893 88.1084 236.17 84.4447 230.498 78.5103L227.746 81.4775C234.092 88.1689 242.798 92.317 252.43 92.317Z" fill="#FFBB33"/>
<path d="M252.739 54.5L202.191 109L202.191 1.52588e-05L252.739 54.5Z" fill="#FEE94E"/>
<path d="M213.985 54.1669C213.985 42.7219 218.282 32.3669 225.246 24.858L222.859 22.2844C215.305 30.4291 210.616 41.7227 210.616 54.1669C210.616 66.7927 215.418 78.2074 223.196 86.3824L225.583 83.8088C218.422 76.2697 213.985 65.7633 213.985 54.1669Z" fill="#FFBB33"/>
<path d="M227.717 81.4774L230.47 78.5102C224.572 72.3335 220.922 63.7044 220.922 54.1669C220.922 44.7808 224.46 36.303 230.133 30.1566L227.38 27.1894C220.978 34.0927 217.018 43.6302 217.018 54.1669C217.046 64.8549 221.118 74.5438 227.717 81.4774Z" fill="#FFBB33"/>
<path d="M151.643 272.5L202.191 327L202.191 218L151.643 272.5Z" fill="#FFBB33"/>
<path d="M151.643 272.5L202.191 327L101.095 327L151.643 272.5Z" fill="#FEE94E"/>
<path d="M101.095 218L101.095 327L8.83804e-06 218L101.095 218Z" fill="#0000FF"/>
<path d="M20.2191 218L-1.3974e-07 218L20.2191 239.8L20.2191 218Z" fill="#6699FF"/>
<path d="M20.2191 239.8L40.4382 239.8L40.4382 261.6L20.2191 239.8Z" fill="#6699FF"/>
<path d="M40.4382 261.6L60.6573 261.6L60.6573 283.4L40.4382 261.6Z" fill="#6699FF"/>
<path d="M60.6573 283.4L80.8764 283.4L80.8764 305.2L60.6573 283.4Z" fill="#6699FF"/>
<path d="M80.8763 305.2L101.095 305.2L101.095 327L80.8763 305.2Z" fill="#6699FF"/>
<path d="M80.8763 283.4L101.095 305.2L101.095 283.4L80.8763 283.4Z" fill="#6699FF"/>
<path d="M60.6573 261.6L80.8764 283.4L80.8764 261.6L60.6573 261.6Z" fill="#6699FF"/>
<path d="M40.4382 239.8L60.6573 261.6L60.6573 239.8L40.4382 239.8Z" fill="#6699FF"/>
<path d="M40.4382 218L60.6573 239.8L60.6573 218L40.4382 218Z" fill="#6699FF"/>
<path d="M80.8763 261.6L101.095 283.4L101.095 261.6L80.8763 261.6Z" fill="#6699FF"/>
<path d="M60.6573 239.8L80.8764 261.6L80.8764 239.8L60.6573 239.8Z" fill="#6699FF"/>
<path d="M60.6573 218L80.8764 239.8L80.8764 218L60.6573 218Z" fill="#6699FF"/>
<path d="M80.8763 218L101.095 239.8L101.095 218L80.8763 218Z" fill="#6699FF"/>
<path d="M80.8763 239.8L101.095 261.6L101.095 239.8L80.8763 239.8Z" fill="#6699FF"/>
<path d="M20.2191 218L40.4382 239.8L40.4382 218L20.2191 218Z" fill="#6699FF"/>
<path d="M202.191 218L202.191 109L303.286 218L202.191 218Z" fill="#0000FF"/>
<path d="M283.067 218L303.286 218L283.067 196.2L283.067 218Z" fill="#6699FF"/>
<path d="M283.067 196.2L262.848 196.2L262.848 174.4L283.067 196.2Z" fill="#6699FF"/>
<path d="M262.848 174.4L242.629 174.4L242.629 152.6L262.848 174.4Z" fill="#6699FF"/>
<path d="M242.629 152.6L222.41 152.6L222.41 130.8L242.629 152.6Z" fill="#6699FF"/>
<path d="M222.41 130.8L202.191 130.8L202.191 109L222.41 130.8Z" fill="#6699FF"/>
<path d="M222.41 152.6L202.191 130.8L202.191 152.6L222.41 152.6Z" fill="#6699FF"/>
<path d="M242.629 174.4L222.41 152.6L222.41 174.4L242.629 174.4Z" fill="#6699FF"/>
<path d="M262.848 196.2L242.629 174.4L242.629 196.2L262.848 196.2Z" fill="#6699FF"/>
<path d="M262.848 218L242.629 196.2L242.629 218L262.848 218Z" fill="#6699FF"/>
<path d="M222.41 174.4L202.191 152.6L202.191 174.4L222.41 174.4Z" fill="#6699FF"/>
<path d="M242.629 196.2L222.41 174.4L222.41 196.2L242.629 196.2Z" fill="#6699FF"/>
<path d="M242.629 218L222.41 196.2L222.41 218L242.629 218Z" fill="#6699FF"/>
<path d="M222.41 218L202.191 196.2L202.191 218L222.41 218Z" fill="#6699FF"/>
<path d="M222.41 196.2L202.191 174.4L202.191 196.2L222.41 196.2Z" fill="#6699FF"/>
<path d="M283.067 218L262.848 196.2L262.848 218L283.067 218Z" fill="#6699FF"/>
<path d="M202.191 109L101.095 109L202.191 6.66423e-06L202.191 109Z" fill="#FFBB33"/>
<path d="M202.191 21.8L202.191 1.81175e-05L181.972 21.8L202.191 21.8Z" fill="#6699FF"/>
<path d="M181.972 21.8L181.972 43.6L161.753 43.6L181.972 21.8Z" fill="#6699FF"/>
<path d="M161.753 43.6L161.753 65.4L141.534 65.4L161.753 43.6Z" fill="#6699FF"/>
<path d="M141.534 65.4L141.534 87.2L121.315 87.2L141.534 65.4Z" fill="#6699FF"/>
<path d="M121.315 87.2L121.315 109L101.095 109L121.315 87.2Z" fill="#6699FF"/>
<path d="M141.534 87.2L121.315 109L141.534 109L141.534 87.2Z" fill="#6699FF"/>
<path d="M161.753 65.4L141.534 87.2L161.753 87.2L161.753 65.4Z" fill="#6699FF"/>
<path d="M181.972 43.6L161.753 65.4L181.972 65.4L181.972 43.6Z" fill="#6699FF"/>
<path d="M202.191 43.6L181.972 65.4L202.191 65.4L202.191 43.6Z" fill="#6699FF"/>
<path d="M161.753 87.2L141.534 109L161.753 109L161.753 87.2Z" fill="#6699FF"/>
<path d="M181.972 65.4L161.753 87.2L181.972 87.2L181.972 65.4Z" fill="#6699FF"/>
<path d="M202.191 65.4L181.972 87.2L202.191 87.2L202.191 65.4Z" fill="#6699FF"/>
<path d="M202.191 87.2L181.972 109L202.191 109L202.191 87.2Z" fill="#6699FF"/>
<path d="M181.972 87.2L161.753 109L181.972 109L181.972 87.2Z" fill="#6699FF"/>
<path d="M202.191 21.8L181.972 43.6L202.191 43.6L202.191 21.8Z" fill="#6699FF"/>
<path d="M101.095 218V327L202.191 218H101.095Z" fill="#0000FF"/>
<path d="M114.575 218L124.684 218L124.684 301.567L114.575 312.467L114.575 218Z" fill="#6699FF"/>
<path d="M134.794 218L144.903 218L144.903 279.767L134.794 290.667L134.794 218Z" fill="#6699FF"/>
<path d="M155.013 218L165.123 218L165.123 257.967L155.013 268.867L155.013 218Z" fill="#6699FF"/>
<path d="M175.232 218L185.342 218L185.342 236.167L175.232 247.067L175.232 218Z" fill="#6699FF"/>
<path d="M107.835 294.3L114.575 301.567V294.3L111.205 290.667L107.835 294.3Z" fill="#FFBB33"/>
<path d="M121.315 294.3L114.575 301.567V294.3L117.945 290.667L121.315 294.3Z" fill="#FEE94E"/>
<path d="M107.835 272.5L114.575 279.767V272.5L111.205 268.867L107.835 272.5Z" fill="#FFBB33"/>
<path d="M121.315 272.5L114.575 279.767V272.5L117.945 268.867L121.315 272.5Z" fill="#FEE94E"/>
<path d="M107.835 250.7L114.575 257.967V250.7L111.205 247.067L107.835 250.7Z" fill="#FFBB33"/>
<path d="M121.315 250.7L114.575 257.967V250.7L117.945 247.067L121.315 250.7Z" fill="#FEE94E"/>
<path d="M107.835 228.9L114.575 236.167V228.9L111.205 225.267L107.835 228.9Z" fill="#FFBB33"/>
<path d="M121.315 228.9L114.575 236.167V228.9L117.945 225.267L121.315 228.9Z" fill="#FEE94E"/>
<path d="M128.054 272.5L134.794 279.767V272.5L131.424 268.867L128.054 272.5Z" fill="#FFBB33"/>
<path d="M141.534 272.5L134.794 279.767V272.5L138.164 268.867L141.534 272.5Z" fill="#FEE94E"/>
<path d="M128.054 250.7L134.794 257.967V250.7L131.424 247.067L128.054 250.7Z" fill="#FFBB33"/>
<path d="M141.534 250.7L134.794 257.967V250.7L138.164 247.067L141.534 250.7Z" fill="#FEE94E"/>
<path d="M128.054 228.9L134.794 236.167V228.9L131.424 225.267L128.054 228.9Z" fill="#FFBB33"/>
<path d="M141.534 228.9L134.794 236.167V228.9L138.164 225.267L141.534 228.9Z" fill="#FEE94E"/>
<path d="M148.273 250.7L155.013 257.967V250.7L151.643 247.067L148.273 250.7Z" fill="#FFBB33"/>
<path d="M161.753 250.7L155.013 257.967V250.7L158.383 247.067L161.753 250.7Z" fill="#FEE94E"/>
<path d="M148.273 228.9L155.013 236.167V228.9L151.643 225.267L148.273 228.9Z" fill="#FFBB33"/>
<path d="M161.753 228.9L155.013 236.167V228.9L158.383 225.267L161.753 228.9Z" fill="#FEE94E"/>
<path d="M168.492 228.9L175.232 236.167V228.9L171.862 225.267L168.492 228.9Z" fill="#FFBB33"/>
<path d="M181.972 228.9L175.232 236.167V228.9L178.602 225.267L181.972 228.9Z" fill="#FEE94E"/>
<path d="M303.286 109V218L202.191 109H303.286Z" fill="#0000FF"/>
<path d="M289.807 109L279.697 109L279.697 192.567L289.807 203.467L289.807 109Z" fill="#6699FF"/>
<path d="M269.588 109L259.478 109L259.478 170.767L269.588 181.667L269.588 109Z" fill="#6699FF"/>
<path d="M249.369 109L239.259 109L239.259 148.967L249.369 159.867L249.369 109Z" fill="#6699FF"/>
<path d="M229.15 109L219.04 109L219.04 127.167L229.15 138.067L229.15 109Z" fill="#6699FF"/>
<path d="M296.547 185.3L289.807 192.567V185.3L293.177 181.667L296.547 185.3Z" fill="#FFBB33"/>
<path d="M283.067 185.3L289.807 192.567V185.3L286.437 181.667L283.067 185.3Z" fill="#FEE94E"/>
<path d="M296.547 163.5L289.807 170.767V163.5L293.177 159.867L296.547 163.5Z" fill="#FFBB33"/>
<path d="M283.067 163.5L289.807 170.767V163.5L286.437 159.867L283.067 163.5Z" fill="#FEE94E"/>
<path d="M296.547 141.7L289.807 148.967V141.7L293.177 138.067L296.547 141.7Z" fill="#FFBB33"/>
<path d="M283.067 141.7L289.807 148.967V141.7L286.437 138.067L283.067 141.7Z" fill="#FEE94E"/>
<path d="M296.547 119.9L289.807 127.167V119.9L293.177 116.267L296.547 119.9Z" fill="#FFBB33"/>
<path d="M283.067 119.9L289.807 127.167V119.9L286.437 116.267L283.067 119.9Z" fill="#FEE94E"/>
<path d="M276.328 163.5L269.588 170.767V163.5L272.958 159.867L276.328 163.5Z" fill="#FFBB33"/>
<path d="M262.848 163.5L269.588 170.767V163.5L266.218 159.867L262.848 163.5Z" fill="#FEE94E"/>
<path d="M276.328 141.7L269.588 148.967V141.7L272.958 138.067L276.328 141.7Z" fill="#FFBB33"/>
<path d="M262.848 141.7L269.588 148.967V141.7L266.218 138.067L262.848 141.7Z" fill="#FEE94E"/>
<path d="M276.328 119.9L269.588 127.167V119.9L272.958 116.267L276.328 119.9Z" fill="#FFBB33"/>
<path d="M262.848 119.9L269.588 127.167V119.9L266.218 116.267L262.848 119.9Z" fill="#FEE94E"/>
<path d="M256.108 141.7L249.369 148.967V141.7L252.739 138.067L256.108 141.7Z" fill="#FFBB33"/>
<path d="M242.629 141.7L249.369 148.967V141.7L245.999 138.067L242.629 141.7Z" fill="#FEE94E"/>
<path d="M256.108 119.9L249.369 127.167V119.9L252.739 116.267L256.108 119.9Z" fill="#FFBB33"/>
<path d="M242.629 119.9L249.369 127.167V119.9L245.999 116.267L242.629 119.9Z" fill="#FEE94E"/>
<path d="M235.889 119.9L229.15 127.167V119.9L232.519 116.267L235.889 119.9Z" fill="#FFBB33"/>
<path d="M222.41 119.9L229.15 127.167V119.9L225.78 116.267L222.41 119.9Z" fill="#FEE94E"/>
<path d="M101.095 1.52588e-05V109L7.62939e-06 1.52588e-05H101.095Z" fill="#FFBB33"/>
<path d="M87.6161 1.47823e-05L77.5065 1.52588e-05L77.5065 83.5667L87.6161 94.4667L87.6161 1.47823e-05Z" fill="#0000FF"/>
<path d="M67.397 1.47823e-05L57.2874 1.52588e-05L57.2874 61.7667L67.397 72.6667L67.397 1.47823e-05Z" fill="#0000FF"/>
<path d="M47.1779 1.47823e-05L37.0684 1.52588e-05L37.0684 39.9666L47.1779 50.8666L47.1779 1.47823e-05Z" fill="#0000FF"/>
<path d="M26.9588 1.47823e-05L16.8492 1.52588e-05L16.8492 18.1667L26.9588 29.0667L26.9588 1.47823e-05Z" fill="#0000FF"/>
<path d="M94.3557 76.3L87.616 83.5667V76.3L90.9859 72.6667L94.3557 76.3Z" fill="#FEE94E"/>
<path d="M80.8764 76.3L87.6161 83.5667V76.3L84.2462 72.6667L80.8764 76.3Z" fill="#FFBB33"/>
<path d="M94.3557 54.5L87.616 61.7667V54.5L90.9859 50.8667L94.3557 54.5Z" fill="#FEE94E"/>
<path d="M80.8764 54.5L87.6161 61.7667V54.5L84.2462 50.8667L80.8764 54.5Z" fill="#FFBB33"/>
<path d="M94.3557 32.7L87.616 39.9667V32.7L90.9859 29.0667L94.3557 32.7Z" fill="#FEE94E"/>
<path d="M80.8764 32.7L87.6161 39.9667V32.7L84.2462 29.0667L80.8764 32.7Z" fill="#FFBB33"/>
<path d="M94.3557 10.9L87.616 18.1667V10.9L90.9859 7.26668L94.3557 10.9Z" fill="#FEE94E"/>
<path d="M80.8764 10.9L87.6161 18.1667V10.9L84.2462 7.26668L80.8764 10.9Z" fill="#FFBB33"/>
<path d="M74.1367 54.5L67.397 61.7667V54.5L70.7668 50.8667L74.1367 54.5Z" fill="#FEE94E"/>
<path d="M60.6573 54.5L67.397 61.7667V54.5L64.0271 50.8667L60.6573 54.5Z" fill="#FFBB33"/>
<path d="M74.1367 32.7L67.397 39.9667V32.7L70.7668 29.0667L74.1367 32.7Z" fill="#FEE94E"/>
<path d="M60.6573 32.7L67.397 39.9667V32.7L64.0271 29.0667L60.6573 32.7Z" fill="#FFBB33"/>
<path d="M74.1367 10.9L67.397 18.1667V10.9L70.7668 7.26668L74.1367 10.9Z" fill="#FEE94E"/>
<path d="M60.6573 10.9L67.397 18.1667V10.9L64.0271 7.26668L60.6573 10.9Z" fill="#FFBB33"/>
<path d="M53.9176 32.7L47.1779 39.9667V32.7L50.5477 29.0667L53.9176 32.7Z" fill="#FEE94E"/>
<path d="M40.4382 32.7L47.1779 39.9667V32.7L43.808 29.0667L40.4382 32.7Z" fill="#FFBB33"/>
<path d="M53.9176 10.9L47.1779 18.1667V10.9L50.5477 7.26668L53.9176 10.9Z" fill="#FEE94E"/>
<path d="M40.4382 10.9L47.1779 18.1667V10.9L43.808 7.26668L40.4382 10.9Z" fill="#FFBB33"/>
<path d="M33.6985 10.9L26.9588 18.1667V10.9L30.3286 7.26668L33.6985 10.9Z" fill="#FEE94E"/>
<path d="M20.2191 10.9L26.9588 18.1667V10.9L23.589 7.26668L20.2191 10.9Z" fill="#FFBB33"/>
<path d="M202.191 218V327L222.41 305.2V218H202.191Z" fill="#FEE94E"/>
<path d="M222.41 218V305.2L242.629 283.4V218H222.41Z" fill="#FFBB33"/>
<path d="M234.204 267.05L229.15 272.5L227.465 274.317L234.204 281.583L237.574 277.95L234.204 274.317L237.574 270.683L234.204 267.05Z" fill="#FEE94E"/>
<path d="M234.204 245.25L229.15 250.7L227.465 252.517L234.204 259.783L237.574 256.15L234.204 252.517L237.574 248.883L234.204 245.25Z" fill="#FEE94E"/>
<path d="M234.204 223.45L229.15 228.9L227.465 230.717L234.204 237.983L237.574 234.35L234.204 230.717L237.574 227.083L234.204 223.45Z" fill="#FEE94E"/>
<path d="M242.629 218V283.4L262.848 261.6V218H242.629Z" fill="#FEE94E"/>
<path d="M262.848 218V261.6L283.067 239.8V218H262.848Z" fill="#FFBB33"/>
<path d="M283.067 218H303.286L283.067 239.8V218Z" fill="#FEE94E"/>
<path d="M274.643 223.45L269.588 228.9L267.903 230.717L274.643 237.983L278.012 234.35L274.643 230.717L278.012 227.083L274.643 223.45Z" fill="#FEE94E"/>
<path d="M303.286 1.52588e-05L202.191 1.04942e-05L222.41 21.8L303.286 21.8L303.286 1.52588e-05Z" fill="#0000FF"/>
<path d="M303.286 21.8L222.41 21.8L242.629 43.6L303.286 43.6L303.286 21.8Z" fill="#FFBB33"/>
<path d="M257.793 34.5167L252.739 29.0667L251.054 27.25L244.314 34.5167L247.684 38.15L251.054 34.5167L254.424 38.15L257.793 34.5167Z" fill="#0000FF"/>
<path d="M278.012 34.5167L272.958 29.0667L271.273 27.25L264.533 34.5167L267.903 38.15L271.273 34.5167L274.643 38.15L278.012 34.5167Z" fill="#0000FF"/>
<path d="M298.232 34.5167L293.177 29.0667L291.492 27.25L284.752 34.5167L288.122 38.15L291.492 34.5167L294.862 38.15L298.232 34.5167Z" fill="#0000FF"/>
<path d="M303.286 43.6L242.629 43.6L262.848 65.4L303.286 65.4L303.286 43.6Z" fill="#0000FF"/>
<path d="M303.286 65.4L262.848 65.4L283.067 87.2L303.286 87.2L303.286 65.4Z" fill="#FFBB33"/>
<path d="M303.286 87.2L303.286 109L283.067 87.2L303.286 87.2Z" fill="#0000FF"/>
<path d="M298.232 78.1167L293.177 72.6667L291.492 70.85L284.752 78.1167L288.122 81.75L291.492 78.1167L294.862 81.75L298.232 78.1167Z" fill="#0000FF"/>
<path d="M303.286 218L202.191 327H303.286V218Z" fill="#0000FF"/>
<path d="M303.286 218V327L252.739 272.5L303.286 218Z" fill="#6699FF"/>
<path d="M278.995 300.81C285.707 293.597 289.807 283.486 289.807 272.5C289.807 261.484 285.707 251.403 278.995 244.19L252.739 272.5L278.995 300.81Z" fill="#0000FF"/>
<path d="M278.995 300.81L252.739 272.5L226.482 300.81C233.172 308.046 242.55 312.467 252.739 312.467C262.928 312.467 272.305 308.046 278.995 300.81Z" fill="#6699FF"/>
<path d="M101.095 218L7.62939e-06 109L3.21037e-06 218L101.095 218Z" fill="#6699FF"/>
<path d="M101.095 218L5.41988e-06 218L50.5477 163.5L101.095 218Z" fill="#0000FF"/>
<path d="M24.291 191.81C30.981 199.046 40.3587 203.467 50.5477 203.467C60.7647 203.467 70.1144 199.046 76.8044 191.81L50.5477 163.5L24.291 191.81Z" fill="#FFBB33"/>
<path d="M24.291 191.81L50.5477 163.5L24.291 135.19C17.5794 142.403 13.4794 152.514 13.4794 163.5C13.4794 174.486 17.5794 184.597 24.291 191.81Z" fill="#FEE94E"/>
<path d="M202.191 218L101.095 109L101.095 218L202.191 218Z" fill="#FEE94E"/>
<path d="M202.191 218L101.095 218L151.643 163.5L202.191 218Z" fill="#6699FF"/>
<path d="M1.65586e-05 109L101.095 218L101.095 109L1.65586e-05 109Z" fill="#FFBB33"/>
<path d="M1.59087e-05 109L101.095 109L50.5477 163.5L1.59087e-05 109Z" fill="#FEE94E"/>
<path d="M76.8045 135.19C70.1144 127.954 60.7368 123.533 50.5477 123.533C40.3308 123.533 30.9811 127.954 24.291 135.19L50.5477 163.5L76.8045 135.19Z" fill="#6699FF"/>
<path d="M76.8045 135.19L50.5477 163.5L76.8045 191.81C83.5161 184.597 87.6161 174.486 87.6161 163.5C87.6161 152.514 83.5161 142.403 76.8045 135.19Z" fill="#0000FF"/>
<path d="M101.095 1.52588e-05V109L202.191 1.52588e-05H101.095Z" fill="#0000FF"/>
</g>
</svg>
