<svg width="24" height="24" viewBox="0 0 24 24" fill="none" xmlns="http://www.w3.org/2000/svg">
<g clip-path="url(#clip0_37_1407)">
<path d="M17.5459 10.6562H15.6372C15.5645 11.9761 15.3179 13.1636 14.9434 14.0942C16.2964 13.4478 17.2881 12.1807 17.5459 10.6562ZM17.5459 9.09375C17.2876 7.56934 16.2964 6.30225 14.9434 5.65576C15.3184 6.58643 15.5645 7.77393 15.6372 9.09375H17.5459ZM12.9375 5.25146C12.562 5.61523 11.9233 6.93213 11.7935 9.09375H14.082C13.9517 6.93262 13.313 5.61523 12.9375 5.25146ZM10.9316 5.65576C9.57861 6.30225 8.58691 7.56934 8.3291 9.09375H10.2378C10.3105 7.77393 10.5566 6.58643 10.9316 5.65576ZM10.9316 14.0942C10.5566 13.1636 10.3105 11.9761 10.2378 10.6562H8.3291C8.58691 12.1807 9.57861 13.4478 10.9316 14.0942ZM14.0815 10.6562H11.793C11.9229 12.8174 12.5615 14.1348 12.937 14.4985C13.313 14.1348 13.9517 12.8174 14.0815 10.6562ZM23.875 18V1.75C23.875 0.96875 23.4062 0.5 22.625 0.5H6.6875C4.03125 0.5 2 2.53125 2 5.1875V20.8125C2 23.4688 4.03125 25.5 6.6875 25.5H22.625C23.25 25.5 23.875 25.0312 23.875 24.25V23.4688C23.875 23.1562 23.7188 22.8438 23.4062 22.5312C23.25 21.75 23.25 19.5625 23.4062 18.9375C23.7188 18.7812 23.875 18.4688 23.875 18ZM12.9375 3.625C16.3892 3.625 19.1875 6.42334 19.1875 9.875C19.1875 13.3267 16.3892 16.125 12.9375 16.125C9.48584 16.125 6.6875 13.3267 6.6875 9.875C6.6875 6.42334 9.48584 3.625 12.9375 3.625ZM20.75 22.375H6.6875C5.75 22.375 5.125 21.75 5.125 20.8125C5.125 19.875 5.90625 19.25 6.6875 19.25H20.75V22.375Z" fill="white"/>
</g>
<defs>
<clipPath id="clip0_37_1407">
<rect width="24" height="24" fill="white"/>
</clipPath>
</defs>
</svg>
