<svg width="25" height="25" viewBox="0 0 25 25" fill="none" xmlns="http://www.w3.org/2000/svg">
<path d="M12.5 0C5.59476 0 0 5.59476 0 12.5C0 19.4052 5.59476 25 12.5 25C19.4052 25 25 19.4052 25 12.5C25 5.59476 19.4052 0 12.5 0ZM19.7581 13.9113C19.7581 14.244 19.4859 14.5161 19.1532 14.5161H14.5161V19.1532C14.5161 19.4859 14.244 19.7581 13.9113 19.7581H11.0887C10.756 19.7581 10.4839 19.4859 10.4839 19.1532V14.5161H5.84677C5.51411 14.5161 5.24194 14.244 5.24194 13.9113V11.0887C5.24194 10.756 5.51411 10.4839 5.84677 10.4839H10.4839V5.84677C10.4839 5.51411 10.756 5.24194 11.0887 5.24194H13.9113C14.244 5.24194 14.5161 5.51411 14.5161 5.84677V10.4839H19.1532C19.4859 10.4839 19.7581 10.756 19.7581 11.0887V13.9113Z" fill="white"/>
</svg>
